<svg id="bike_padded" xmlns="http://www.w3.org/2000/svg" width="24" height="24.001" viewBox="0 0 24 24.001">
  <path id="Fill-1" d="M20.634.338H4.043a3.715,3.715,0,0,0-3.7,3.7V20.635a3.715,3.715,0,0,0,3.7,3.7H20.634a3.715,3.715,0,0,0,3.7-3.7V4.043a3.715,3.715,0,0,0-3.7-3.7" transform="translate(-0.339 -0.338)" fill="none" fill-rule="evenodd"/>
  <g id="Icon_ionic-ios-bicycle" data-name="Icon ionic-ios-bicycle" transform="translate(2.812 3.754)">
    <g id="Group_5227" data-name="Group 5227">
      <path id="Path_5188" data-name="Path 5188" d="M6.136,19.539a2.738,2.738,0,1,1-1.92.8,2.7,2.7,0,0,1,1.92-.8m0-1.166a3.888,3.888,0,1,0,3.886,3.89,3.9,3.9,0,0,0-3.886-3.89Z" transform="translate(-2.25 -10.155)"/>
      <path id="Path_5189" data-name="Path 5189" d="M21.569,7.157A1.326,1.326,0,0,0,22.9,5.825,1.312,1.312,0,0,0,21.577,4.5a1.329,1.329,0,1,0-.008,2.657Z" transform="translate(-9.581 -4.5)"/>
      <path id="Path_5190" data-name="Path 5190" d="M24.516,19.539a2.738,2.738,0,1,1-1.92.8,2.7,2.7,0,0,1,1.92-.8m0-1.166A3.886,3.886,0,1,0,28.4,22.259a3.9,3.9,0,0,0-3.886-3.886Z" transform="translate(-9.742 -10.155)"/>
    </g>
    <path id="Path_5191" data-name="Path 5191" d="M19.914,11.322h-2l-1.229-2.5a1.3,1.3,0,0,0-2.062-.275l-2.986,2.878a1.356,1.356,0,0,0-.387.933,1.241,1.241,0,0,0,.771,1.129c1.9,1.091,2.562,1.212,2.562,1.758v2.745a.666.666,0,1,0,1.333,0V14.238c0-.55-1.266-1-2.012-1.583L15.94,10.51c.779,1.187,1.137,2.145,1.583,2.145h2.391a.666.666,0,1,0,0-1.333Z" transform="translate(-5.918 -5.99)"/>
  </g>
</svg>
