<svg id="bus_unselected" xmlns="http://www.w3.org/2000/svg" width="24" height="24" viewBox="0 0 24 24">
  <path id="Rectangle" d="M3,0H21c1.657,0,3,3,3,3V21a3,3,0,0,1-3,3H3a3,3,0,0,1-3-3V3A3,3,0,0,1,3,0Z" fill="#1c73a6"/>
  <path id="Fill-2" d="M12.274,15.59c-3.013,0-5.455-.639-5.455-1.427,0-.055-.024-1.338-.024-1.47V9.229A1.313,1.313,0,0,1,8.1,7.92h8.3a1.313,1.313,0,0,1,1.309,1.309v3.463c0,.117.012,1.4.012,1.47C17.729,14.951,15.286,15.59,12.274,15.59Zm4.537,1.961a.772.772,0,1,1,.773-.772A.773.773,0,0,1,16.811,17.551Zm-9.113,0a.772.772,0,1,1,.773-.772A.773.773,0,0,1,7.7,17.551ZM8.506,5.208H16a1.73,1.73,0,0,1,1.714,1.573H6.792A1.73,1.73,0,0,1,8.506,5.208Zm7.587-1.079A1.92,1.92,0,0,0,14.344,3H10.168A1.92,1.92,0,0,0,8.42,4.129,3.43,3.43,0,0,0,5,7.548v9.382a1.919,1.919,0,0,0,.935,1.647v1.694a.712.712,0,0,0,.71.71H7.726a.712.712,0,0,0,.71-.71V18.853h7.635v1.419a.713.713,0,0,0,.71.71h1.081a.712.712,0,0,0,.71-.71V18.578a1.919,1.919,0,0,0,.935-1.647V7.545a3.426,3.426,0,0,0-3.416-3.416Z" transform="translate(-0.254 0.009)" fill="#fff" fill-rule="evenodd"/>
</svg>
