<svg id="car_padded" xmlns="http://www.w3.org/2000/svg" width="24" height="24.001" viewBox="0 0 24 24.001">
  <path id="Fill-1" d="M20.634.338H4.043a3.715,3.715,0,0,0-3.7,3.7V20.635a3.715,3.715,0,0,0,3.7,3.7H20.634a3.715,3.715,0,0,0,3.7-3.7V4.043a3.715,3.715,0,0,0-3.7-3.7" transform="translate(-0.339 -0.338)" fill="none" fill-rule="evenodd"/>
  <path id="Path_5605" data-name="Path 5605" d="M13.574,26.354a1.284,1.284,0,0,0-1.2-.854H2.988a1.206,1.206,0,0,0-1.2.854L0,31.476v6.83a.807.807,0,0,0,.854.854h.854a.807.807,0,0,0,.854-.854v-.854H12.806v.854a.807.807,0,0,0,.854.854h.854a.807.807,0,0,0,.854-.854v-6.83ZM2.988,34.891a1.281,1.281,0,0,1,0-2.561,1.281,1.281,0,0,1,0,2.561Zm9.391,0a1.281,1.281,0,1,1,1.281-1.281A1.313,1.313,0,0,1,12.379,34.891ZM1.707,30.622l1.281-3.842h9.391l1.281,3.842Z" transform="translate(4.579 -20.032)"/>
</svg>
