<svg id="commuter_rail_stop_unselected" xmlns="http://www.w3.org/2000/svg" width="24" height="24" viewBox="0 0 24 24">
  <g id="Bus_map-Copy-2" transform="translate(0)">
    <path id="Fill-1" d="M20.775,0H4.184a3.715,3.715,0,0,0-3.7,3.7V20.3a3.716,3.716,0,0,0,3.7,3.7H20.775a3.715,3.715,0,0,0,3.7-3.7V3.7a3.715,3.715,0,0,0-3.7-3.7" transform="translate(-0.479)" fill="#464a67" fill-rule="evenodd"/>
    <path id="Shape" d="M17.021,20.579a.155.155,0,0,0-.119-.059H15.633a.158.158,0,0,0-.14.085.19.19,0,0,0,0,.175l.757,1.608a.16.16,0,0,0,.143.1h1.9a.161.161,0,0,0,.153-.106.188.188,0,0,0-.033-.194Zm-3.665-.059H12.087a.155.155,0,0,0-.119.059l-1.389,1.608a.188.188,0,0,0-.033.194.161.161,0,0,0,.153.106h1.877a.16.16,0,0,0,.143-.1l.763-1.608a.19.19,0,0,0,0-.175.158.158,0,0,0-.14-.085ZM9.6,15.748A.625.625,0,0,0,9,16.4V18.02a.7.7,0,0,0,.048.26l.56,1.387a.6.6,0,0,0,.536.384h8.671a.6.6,0,0,0,.536-.384l.56-1.387a.7.7,0,0,0,.048-.26V16.392a.626.626,0,0,0-.584-.645Zm9.785-6.022a.711.711,0,0,0,0-.117V6.06a.692.692,0,0,0-.113-.378l-.292-.566a.589.589,0,0,0-.513-.326H16.813l-.149-.313a.5.5,0,0,0-.274-.254,8.157,8.157,0,0,0-3.8,0,.5.5,0,0,0-.274.254l-.149.313H10.5a.589.589,0,0,0-.513.326l-.328.651a.7.7,0,0,0-.077.319V9.628a.711.711,0,0,0,0,.117l-.53,1.3A.7.7,0,0,0,9,11.321v3.125a.625.625,0,0,0,.6.651h9.779a.625.625,0,0,0,.6-.651V11.321a.7.7,0,0,0-.06-.293Zm-8.67,3.261a1.133,1.133,0,0,1,.213-1.173A.911.911,0,0,1,12,11.6a1.075,1.075,0,0,1,.573,1.02,1.021,1.021,0,0,1-.942,1.042A1,1,0,0,1,10.712,12.987Zm3.306-4.062h-3.23V6.7h3.218Zm.489-2.936a.688.688,0,0,1-.656-.716.658.658,0,1,1,1.311,0,.755.755,0,0,1-.183.537.629.629,0,0,1-.484.219ZM15,6.639h3.236V8.9H14.959Zm1.464,6.31a1.132,1.132,0,0,1,.229-1.174.91.91,0,0,1,1.085-.19,1.08,1.08,0,0,1,.553,1.037,1.016,1.016,0,0,1-.983,1.042A.988.988,0,0,1,16.46,12.949Z" transform="translate(-2.486 -1.257)" fill="#fff"/>
  </g>
</svg>
