<svg xmlns="http://www.w3.org/2000/svg" width="24" height="24" viewBox="0 0 24 24">
  <g id="commuter_rail_padded" transform="translate(0.383)">
    <rect id="Rectangle" width="24" height="24" transform="translate(-0.383)" fill="none"/>
    <path id="Shape" d="M71.364,173.415a.165.165,0,0,0-.124-.058H69.916a.167.167,0,0,0-.146.085.18.18,0,0,0,0,.173l.789,1.592a.167.167,0,0,0,.149.1h1.976a.167.167,0,0,0,.159-.1.179.179,0,0,0-.035-.192Zm-3.822-.058H66.219a.165.165,0,0,0-.124.058l-1.448,1.592a.179.179,0,0,0-.035.192.167.167,0,0,0,.159.1h1.957a.167.167,0,0,0,.149-.1l.8-1.592a.18.18,0,0,0,0-.173.167.167,0,0,0-.146-.085Zm6.276-4.725h-10.2a.633.633,0,0,0-.621.645v1.605a.666.666,0,0,0,.05.258l.584,1.373a.621.621,0,0,0,.559.38h9.041a.621.621,0,0,0,.559-.38l.584-1.373a.666.666,0,0,0,.05-.258V169.27a.634.634,0,0,0-.609-.638Zm.559-4.674-.553-1.289a.666.666,0,0,0,0-.116V159.04h0a.661.661,0,0,0-.118-.374l-.3-.561a.618.618,0,0,0-.534-.322H71.147l-.155-.309a.515.515,0,0,0-.286-.251,8.945,8.945,0,0,0-3.958,0,.509.509,0,0,0-.286.251l-.155.309h-1.74a.618.618,0,0,0-.534.322l-.342.645a.664.664,0,0,0-.081.316h0v3.507a.669.669,0,0,0,0,.116l-.553,1.289a.665.665,0,0,0-.056.271v3.094a.633.633,0,0,0,.621.645h10.2a.633.633,0,0,0,.621-.645v-3.094a.666.666,0,0,0-.062-.29Zm-8.631,2.579a1.012,1.012,0,0,1-.962-.639,1.079,1.079,0,0,1,.223-1.162.986.986,0,0,1,1.124-.209,1.055,1.055,0,0,1,.6,1.01,1.033,1.033,0,0,1-.982,1.031Zm2.486-4.661H64.864v-2.2H68.22Zm.51-2.907a.71.71,0,1,1,.684-.709.724.724,0,0,1-.191.531.671.671,0,0,1-.505.216Zm.51.645h3.374v2.237H69.214Zm2.486,6.9a1.012,1.012,0,0,1-.959-.65,1.079,1.079,0,0,1,.239-1.162.985.985,0,0,1,1.131-.188,1.057,1.057,0,0,1,.577,1.027,1.031,1.031,0,0,1-1.025,1.031Z" transform="translate(-56.618 -153.721)"/>
  </g>
</svg>
