<svg width="49" height="49" viewBox="0 0 49 49" fill="none" xmlns="http://www.w3.org/2000/svg">
<g clip-path="url(#clip0_132_71)">
<path d="M24.374 0C10.935 0 0.000976562 10.934 0.000976562 24.373C0.000976562 29.435 1.55198 34.141 4.20398 38.041V38.109H4.25298C8.64698 44.527 16.026 48.748 24.374 48.748C37.813 48.748 48.747 37.812 48.747 24.373C48.747 10.934 37.813 0 24.374 0ZM25.374 11.123V2.025C27.763 2.13 30.056 2.613 32.194 3.413C32.75 4.421 34.028 7.015 35.084 11.123H25.374ZM35.554 13.123C36.176 16.083 36.632 19.679 36.676 23.874H25.374V13.123H35.554ZM23.374 11.123H14.124C15.263 6.699 16.655 4.032 17.126 3.211C19.101 2.533 21.196 2.122 23.374 2.025V11.123ZM23.374 13.123V23.874H12.532C12.577 19.679 13.032 16.082 13.655 13.123H23.374ZM10.532 23.874H2.01198C2.09898 19.962 3.19198 16.296 5.04598 13.123H11.6C11.001 16.117 10.573 19.705 10.532 23.874ZM10.547 25.874C10.631 29.848 11.06 33.27 11.65 36.109H5.33698C3.47198 33.095 2.30598 29.609 2.05698 25.874H10.547V25.874ZM12.548 25.874H23.374V36.109H13.716C13.101 33.305 12.637 29.887 12.548 25.874ZM23.374 38.109V46.722C21.193 46.624 19.095 46.211 17.118 45.533C16.66 44.762 15.324 42.277 14.204 38.109H23.374ZM25.374 38.109H35.004C33.968 41.963 32.748 44.379 32.207 45.329C30.065 46.133 27.769 46.617 25.374 46.723V38.109V38.109ZM25.374 36.109V25.874H36.661C36.571 29.887 36.106 33.305 35.491 36.109H25.374V36.109ZM38.661 25.874H46.69C46.442 29.609 45.276 33.098 43.411 36.109H37.557C38.147 33.27 38.577 29.848 38.661 25.874ZM38.676 23.874C38.634 19.705 38.207 16.117 37.609 13.123H43.703C45.557 16.296 46.65 19.962 46.736 23.874H38.676ZM42.388 11.123H37.167C36.499 8.38 35.722 6.253 35.058 4.72C37.944 6.296 40.446 8.49 42.388 11.123ZM14.283 4.414C13.594 5.962 12.754 8.198 12.04 11.123H6.35998C8.43298 8.312 11.147 6.007 14.283 4.414ZM6.73298 38.109H12.111C12.795 40.797 13.582 42.855 14.242 44.312C11.306 42.814 8.74498 40.688 6.73298 38.109ZM35.103 44.001C35.734 42.564 36.46 40.614 37.097 38.109H42.015C40.142 40.514 37.79 42.525 35.103 44.001Z" fill="#00205B"/>
</g>
<defs>
<clipPath id="clip0_132_71">
<rect width="48.748" height="48.748" fill="white"/>
</clipPath>
</defs>
</svg>
