<svg width="310" height="310" viewBox="0 0 310 310" fill="none" xmlns="http://www.w3.org/2000/svg">
<path d="M81.7031 165.106H115.684V305C115.684 307.762 117.922 310 120.684 310H178.3C181.062 310 183.3 307.762 183.3 305V165.765H222.364C224.904 165.765 227.041 163.859 227.331 161.336L233.264 109.834C233.427 108.417 232.978 106.998 232.03 105.935C231.081 104.871 229.723 104.262 228.298 104.262H183.302V71.978C183.302 62.246 188.542 57.311 198.878 57.311C200.351 57.311 228.298 57.311 228.298 57.311C231.06 57.311 233.298 55.072 233.298 52.311V5.037C233.298 2.275 231.06 0.037 228.298 0.037H187.753C187.467 0.023 186.832 0 185.896 0C178.861 0 154.408 1.381 135.092 19.151C113.69 38.843 116.665 62.421 117.376 66.509V104.261H81.7031C78.9411 104.261 76.7031 106.499 76.7031 109.261V160.105C76.7031 162.867 78.9411 165.106 81.7031 165.106Z" fill="#00205B"/>
</svg>
