<svg id="GoLink_unselected" xmlns="http://www.w3.org/2000/svg" width="24" height="24" viewBox="0 0 24 24">
  <rect id="Rectangle" width="24" height="24" rx="3" fill="#182959"/>
  <g id="Group-8" transform="translate(2 6)">
    <path id="Fill-1" d="M4.835,11a5.959,5.959,0,0,1-2.2-.383,4.164,4.164,0,0,1-1.61-1.1A4.036,4.036,0,0,1,.136,7.785,5.392,5.392,0,0,1,.1,5.515,6.542,6.542,0,0,1,.946,3.244,6.738,6.738,0,0,1,2.45,1.5,6.7,6.7,0,0,1,6.679,0,6.031,6.031,0,0,1,8.9.4a3.723,3.723,0,0,1,1.575,1.091L8.013,3.951a1.909,1.909,0,0,0-.648-.612,2.059,2.059,0,0,0-1.037-.229,2.311,2.311,0,0,0-.853.17,2.7,2.7,0,0,0-.793.487,3.205,3.205,0,0,0-.631.759,2.859,2.859,0,0,0-.366.988A2.43,2.43,0,0,0,3.93,7.292a1.841,1.841,0,0,0,1.676.685,2.992,2.992,0,0,0,.458-.037,1.292,1.292,0,0,0,.384-.111l.142-.8H4.93l.491-2.757h4.733L9.137,9.983a6.547,6.547,0,0,1-.909.406,9.662,9.662,0,0,1-1.061.317q-.556.133-1.152.213A8.726,8.726,0,0,1,4.835,11" fill="#fff" fill-rule="evenodd"/>
    <path id="Fill-2" d="M15.466,5.756a1.558,1.558,0,0,0-1.032.367,1.491,1.491,0,0,0-.538.863,1.022,1.022,0,0,0,.2.89,1.087,1.087,0,0,0,.893.367,1.588,1.588,0,0,0,1.04-.367,1.512,1.512,0,0,0,.551-.89.978.978,0,0,0-.21-.863A1.111,1.111,0,0,0,15.466,5.756Zm4.45,1.216a4.4,4.4,0,0,1-.722,1.71,5.113,5.113,0,0,1-1.281,1.265,5.8,5.8,0,0,1-1.653.784A6.416,6.416,0,0,1,14.422,11a5.332,5.332,0,0,1-1.716-.269,3.5,3.5,0,0,1-1.333-.784A2.929,2.929,0,0,1,10.6,8.682a3.452,3.452,0,0,1-.041-1.71,4.318,4.318,0,0,1,.718-1.689,5.091,5.091,0,0,1,1.27-1.251,5.657,5.657,0,0,1,1.642-.771A6.511,6.511,0,0,1,16.014,3a5.536,5.536,0,0,1,1.733.261,3.572,3.572,0,0,1,1.343.771,2.849,2.849,0,0,1,.78,1.251,3.379,3.379,0,0,1,.046,1.689Z" fill="#fff" fill-rule="evenodd"/>
  </g>
</svg>
