<svg id="light_rail_unselected" xmlns="http://www.w3.org/2000/svg" width="24" height="24" viewBox="0 0 24 24">
  <path id="Rectangle" d="M3,0H21a3,3,0,0,1,3,3V21a3,3,0,0,1-3,3H3a3,3,0,0,1-3-3V3A3,3,0,0,1,3,0Z" fill="#00205b"/>
  <g id="Group_6451" data-name="Group 6451" transform="translate(0 -0.001)">
    <path id="Fill-2" d="M17.378,18.149a.678.678,0,0,0-.549-.28H7.6a.678.678,0,0,0-.549.28L4.673,21.235H6.6l1.345-1.76h8.542l1.345,1.76h1.924l-2.374-3.086" transform="translate(-0.213 0.172)" fill="#fff" fill-rule="evenodd"/>
    <path id="Fill-3" d="M17.434,16.414a.317.317,0,0,1-.317.317H15.463a.317.317,0,0,1-.317-.317v-1.2a.317.317,0,0,1,.317-.316h1.654a.317.317,0,0,1,.317.316ZM8.45,14.057a1.166,1.166,0,0,1-1.166-1.166l.278-4.377A1.166,1.166,0,0,1,8.728,7.348H15.64a1.166,1.166,0,0,1,1.166,1.166l.278,4.377a1.166,1.166,0,0,1-1.166,1.166ZM9.2,16.414a.317.317,0,0,1-.317.317H7.231a.317.317,0,0,1-.317-.317v-1.2a.316.316,0,0,1,.317-.316H8.885a.317.317,0,0,1,.317.316ZM8,4.947a.835.835,0,1,1-.834.835A.835.835,0,0,1,8,4.947Zm8.372,0a.835.835,0,1,1-.835.835A.835.835,0,0,1,16.37,4.947Zm1.8.99a2.078,2.078,0,0,0-2.005-2.061c-.212-.042-.47-.078-.758-.109L15.24,2.86H9.114l-.149.9c-.289.032-.547.07-.758.116a2.07,2.07,0,0,0-1.98,2.061c-.206,1.714-.624,8.1-.556,9.542s.617,2.056,1.508,2.056l4.588,0,5.421,0c.891,0,1.44-.617,1.508-2.056s-.325-7.828-.531-9.542Z" transform="translate(-0.184 -0.264)" fill="#fff" fill-rule="evenodd"/>
  </g>
</svg>
