<svg width="310" height="310" viewBox="0 0 310 310" fill="none" xmlns="http://www.w3.org/2000/svg">
<path d="M72.1598 99.73H9.92676C7.16476 99.73 4.92676 101.969 4.92676 104.73V304.658C4.92676 307.42 7.16476 309.658 9.92676 309.658H72.1598C74.9218 309.658 77.1598 307.42 77.1598 304.658V104.73C77.1598 101.969 74.9218 99.73 72.1598 99.73Z" fill="#00205B"/>
<path d="M41.066 0.34082C18.422 0.34082 0 18.7428 0 41.3618C0 63.9908 18.422 82.3998 41.066 82.3998C63.692 82.3998 82.099 63.9898 82.099 41.3618C82.1 18.7428 63.692 0.34082 41.066 0.34082Z" fill="#00205B"/>
<path d="M230.454 94.7607C205.459 94.7607 186.982 105.506 175.775 117.715V104.73C175.775 101.969 173.537 99.7297 170.775 99.7297H111.176C108.414 99.7297 106.176 101.969 106.176 104.73V304.658C106.176 307.42 108.414 309.658 111.176 309.658H173.273C176.035 309.658 178.273 307.42 178.273 304.658V205.74C178.273 172.407 187.327 159.421 210.563 159.421C235.869 159.421 237.88 180.239 237.88 207.455V304.659C237.88 307.421 240.118 309.659 242.88 309.659H305C307.762 309.659 310 307.421 310 304.659V194.995C310 145.43 300.549 94.7607 230.454 94.7607Z" fill="#00205B"/>
</svg>
