<svg width="55" height="55" viewBox="0 0 55 55" fill="none" xmlns="http://www.w3.org/2000/svg">
<path d="M20 6.26304L35 9.79204V49.808L20 47.161V6.26304ZM19.001 4.00104C18.777 4.00104 18.558 4.07604 18.379 4.21704C18.14 4.40604 18 4.69504 18 5.00104V48.001C18 48.486 18.348 48.901 18.826 48.985L35.826 51.985C35.884 51.996 35.942 52.001 36 52.001C36.233 52.001 36.461 51.919 36.643 51.767C36.869 51.577 37 51.296 37 51.001V9.00104C37 8.53704 36.681 8.13404 36.229 8.02704L19.229 4.02704C19.153 4.00904 19.077 4.00104 19.001 4.00104Z" fill="#00205B"/>
<path d="M54.584 2.18901C54.323 2.00101 53.987 1.94801 53.683 2.05201L35.683 8.05201C35.275 8.18801 35 8.57001 35 9.00101V51.001C35 51.331 35.163 51.64 35.436 51.826C35.604 51.941 35.802 52.001 36 52.001C36.123 52.001 36.245 51.979 36.362 51.933L54.362 44.933C54.747 44.783 55 44.413 55 44.001V3.00101C55 2.67901 54.846 2.37801 54.584 2.18901Z" fill="#00205B"/>
<path d="M18.783 4.02402L0.783 8.02402C0.326 8.12702 0 8.53202 0 9.00102V52.001C0 52.305 0.138 52.591 0.375 52.781C0.554 52.925 0.775 53.001 1 53.001C1.072 53.001 1.145 52.993 1.217 52.978L19.217 48.978C19.674 48.875 20 48.469 20 48.001V5.00102C20 4.69702 19.862 4.41102 19.625 4.22102C19.39 4.03102 19.08 3.96102 18.783 4.02402Z" fill="#00205B"/>
</svg>
