<svg width="20" height="20" viewBox="0 0 20 20" fill="none" xmlns="http://www.w3.org/2000/svg">
<path d="M4 8.00001C3.99945 6.75337 4.38723 5.53751 5.10945 4.52138C5.83167 3.50526 6.85247 2.73932 8.03 2.33001C7.9844 2.04432 8.00132 1.75214 8.0796 1.47362C8.15788 1.19511 8.29565 0.93689 8.48341 0.716787C8.67117 0.496684 8.90444 0.319935 9.16714 0.198735C9.42983 0.0775356 9.71569 0.0147705 10.005 0.0147705C10.2943 0.0147705 10.5802 0.0775356 10.8429 0.198735C11.1056 0.319935 11.3388 0.496684 11.5266 0.716787C11.7143 0.93689 11.8521 1.19511 11.9304 1.47362C12.0087 1.75214 12.0256 2.04432 11.98 2.33001C13.1557 2.741 14.1743 3.50765 14.8946 4.52364C15.615 5.53962 16.0013 6.75458 16 8.00001V14L19 16V17H1V16L4 14V8.00001ZM12 18C12 18.5304 11.7893 19.0391 11.4142 19.4142C11.0391 19.7893 10.5304 20 10 20C9.46957 20 8.96086 19.7893 8.58579 19.4142C8.21071 19.0391 8 18.5304 8 18H12Z" fill="#00205B"/>
</svg>
