<svg id="streetcar_padded" xmlns="http://www.w3.org/2000/svg" width="24" height="24" viewBox="0 0 24 24">
  <path id="Fill-1" d="M20.634.338H4.043a3.715,3.715,0,0,0-3.7,3.7V20.634a3.716,3.716,0,0,0,3.7,3.7H20.634a3.716,3.716,0,0,0,3.7-3.7V4.043a3.715,3.715,0,0,0-3.7-3.7" transform="translate(-0.338 -0.338)" fill="none" fill-rule="evenodd"/>
  <path id="Fill-2" d="M13.289,18.987a4.809,4.809,0,0,0-2.171,0,.281.281,0,0,0-.194.232c-.068.68-.135,1.346-.2,1.993a.158.158,0,0,0,.159.177H13.53a.157.157,0,0,0,.159-.177c-.07-.647-.137-1.313-.2-1.993A.281.281,0,0,0,13.289,18.987Zm3.364-6.652h-8.9a.6.6,0,0,1-.6-.664l.461-4.777a.751.751,0,0,1,.731-.664h7.72a.752.752,0,0,1,.731.664l.461,4.777A.6.6,0,0,1,16.654,12.334Zm-1.013,4.532A1.168,1.168,0,1,1,16.808,15.7,1.167,1.167,0,0,1,15.641,16.866Zm-6.874,0A1.168,1.168,0,1,1,9.934,15.7,1.167,1.167,0,0,1,8.767,16.866Zm10.641-2.042L18.7,7.477a4.925,4.925,0,0,0-4.791-4.351H10.5A4.925,4.925,0,0,0,5.709,7.477L5,14.825A4.513,4.513,0,0,0,8.391,19.81c.385.063.816.116,1.275.156q.043-.426.086-.856a1.452,1.452,0,0,1,1.1-1.269,5.989,5.989,0,0,1,2.707,0,1.453,1.453,0,0,1,1.094,1.26c.031.31.06.6.087.864.459-.041.89-.093,1.275-.156a4.511,4.511,0,0,0,3.392-4.985Z" transform="translate(-0.204 -0.258)" fill-rule="evenodd"/>
</svg>
