<svg width="310" height="310" viewBox="0 0 310 310" fill="none" xmlns="http://www.w3.org/2000/svg">
<g clip-path="url(#clip0_138_131)">
<path d="M302.973 57.3882C298.103 59.5482 293.096 61.3712 287.98 62.8512C294.037 56.0012 298.655 47.9412 301.474 39.1212C302.106 37.1442 301.451 34.9802 299.826 33.6872C298.203 32.3932 295.948 32.2382 294.161 33.2972C283.296 39.7412 271.574 44.3722 259.283 47.0802C246.902 34.9822 230.086 28.0972 212.702 28.0972C176.007 28.0972 146.153 57.9502 146.153 94.6442C146.153 97.5342 146.336 100.408 146.698 103.242C101.163 99.2442 58.8303 76.8632 29.7603 41.2042C28.7243 39.9332 27.1283 39.2482 25.4943 39.3792C23.8593 39.5072 22.3903 40.4292 21.5643 41.8462C15.6683 51.9632 12.5513 63.5342 12.5513 75.3072C12.5513 91.3422 18.2763 106.556 28.3893 118.444C25.3143 117.379 22.3303 116.048 19.4823 114.467C17.9533 113.616 16.0873 113.629 14.5683 114.5C13.0483 115.371 12.0953 116.973 12.0553 118.724C12.0483 119.019 12.0483 119.314 12.0483 119.613C12.0483 143.548 24.9303 165.097 44.6253 176.842C42.9333 176.673 41.2423 176.428 39.5623 176.107C37.8303 175.776 36.0493 176.383 34.8813 177.704C33.7113 179.024 33.3243 180.864 33.8633 182.544C41.1533 205.304 59.9223 222.045 82.6123 227.149C63.7933 238.936 42.2723 245.11 19.6803 245.11C14.9663 245.11 10.2253 244.833 5.58526 244.284C3.28026 244.01 1.07626 245.371 0.291259 247.563C-0.493741 249.756 0.338259 252.201 2.29926 253.458C31.3223 272.067 64.8813 281.903 99.3463 281.903C167.1 281.903 209.485 249.953 233.11 223.15C262.57 189.729 279.466 145.492 279.466 101.783C279.466 99.9572 279.438 98.1132 279.382 96.2752C291.005 87.5182 301.012 76.9202 309.155 64.7392C310.392 62.8892 310.258 60.4442 308.825 58.7412C307.394 57.0372 305.009 56.4862 302.973 57.3882Z" fill="#00205B"/>
</g>
<defs>
<clipPath id="clip0_138_131">
<rect width="310" height="310" fill="white"/>
</clipPath>
</defs>
</svg>
