<svg id="walk_padded" xmlns="http://www.w3.org/2000/svg" width="24" height="24.001" viewBox="0 0 24 24.001">
  <path id="Fill-1" d="M20.634.338H4.043a3.715,3.715,0,0,0-3.7,3.7V20.635a3.715,3.715,0,0,0,3.7,3.7H20.634a3.715,3.715,0,0,0,3.7-3.7V4.043a3.715,3.715,0,0,0-3.7-3.7" transform="translate(-0.339 -0.338)" fill="none" fill-rule="evenodd"/>
  <g id="GoLink-Mix-Supply" transform="translate(7.423 3.991)">
    <g id="Travel-Tools-icons-Copy-7" transform="translate(0 0)">
      <g id="Walk_map-Copy" transform="translate(0 0)">
        <path id="Fill-4" d="M10.381,8.567,8.8,7.713a2.1,2.1,0,0,1-.79-.737L6.554,4.629a1.406,1.406,0,0,0-1.942-.4L2.589,5.55,2.056,5.9a2.067,2.067,0,0,0-.719.8l-.9,1.793A.489.489,0,0,0,.7,9.158a.557.557,0,0,0,.718-.243l.773-1.548a2.06,2.06,0,0,1,.719-.8L3.775,6,2.826,9.311l-.781,2.718A3.926,3.926,0,0,1,1.412,13.3L.146,14.983a.724.724,0,0,0,.2,1.052.845.845,0,0,0,1.127-.186l1.429-1.9a3.9,3.9,0,0,0,.634-1.268l.519-1.809.33-1.15.555.9.973,1.571A3.861,3.861,0,0,1,6.425,13.5l.383,2.028a.806.806,0,0,0,.938.613.761.761,0,0,0,.656-.875l-.433-2.29a3.853,3.853,0,0,0-.512-1.315L5.74,8.888l.7-2.432.453.731.324.525a2.09,2.09,0,0,0,.79.737l1.835.989a.561.561,0,0,0,.737-.185.485.485,0,0,0-.2-.687" transform="translate(0 -0.957)" fill-rule="evenodd"/>
        <path id="Fill-1-2" data-name="Fill-1" d="M9.855,1.915A1.447,1.447,0,0,1,8.076,2.991,1.53,1.53,0,0,1,7.05,1.128,1.446,1.446,0,0,1,8.828.052,1.53,1.53,0,0,1,9.855,1.915" transform="translate(-1.675 0)" fill-rule="evenodd"/>
      </g>
    </g>
  </g>
</svg>
